# xmcd
#
# Track frame offsets: 
#        150
#        13015
#        26897
#        41050
#        55529
#        68277
#        83973
#        97908
#        112358
#        128261
#        143835
#
# Disc length: 2085 seconds
#
# Revision: 0
# Processed by: cddbd v1.5.2PL0 Copyright (c) Steve Scherf et al.
# Submitted via: ExactAudioCopyFreeDBPlugin 1.0
#
DISCID=8808230b
DTITLE=Tate Stevens - Tate Stevens
DYEAR=2013
DGENRE=Country
TTITLE0=I Got This
TTITLE1=Can't Get Nothin' Done
TTITLE2=Ride It Out
TTITLE3=Power Of A Love Song
TTITLE4=Sweet
TTITLE5=That's Where We Live
TTITLE6=El Camino
TTITLE7=That's How You Get The Girl
TTITLE8=Ordinary Angels
TTITLE9=The Last Thing I Do
TTITLE10=Holler If You're With Me
EXTD=
EXTT0=
EXTT1=
EXTT2=
EXTT3=
EXTT4=
EXTT5=
EXTT6=
EXTT7=
EXTT8=
EXTT9=
EXTT10=
PLAYORDER=
